<?xml version="1.0" encoding="UTF-8" standalone="no"?>
<svg
   xmlns:dc="http://purl.org/dc/elements/1.1/"
   xmlns:cc="http://creativecommons.org/ns#"
   xmlns:rdf="http://www.w3.org/1999/02/22-rdf-syntax-ns#"
   xmlns:svg="http://www.w3.org/2000/svg"
   xmlns="http://www.w3.org/2000/svg"
   xmlns:sodipodi="http://sodipodi.sourceforge.net/DTD/sodipodi-0.dtd"
   xmlns:inkscape="http://www.inkscape.org/namespaces/inkscape"
   preserveAspectRatio="xMinYMin meet"
   width="937.500"
   height="937.500"
   version="1.1"
   id="svg2"
   inkscape:version="0.91 r13725"
   sodipodi:docname="AnalogClockAnimation2.svg">
  <metadata
     id="metadata598">
    <rdf:RDF>
      <cc:Work
         rdf:about="">
        <dc:format>image/svg+xml</dc:format>
        <dc:type
           rdf:resource="http://purl.org/dc/dcmitype/StillImage" />
      </cc:Work>
    </rdf:RDF>
  </metadata>
  <defs
     id="defs596" />
  <sodipodi:namedview
     pagecolor="#ffffff"
     bordercolor="#666666"
     borderopacity="1"
     objecttolerance="10"
     gridtolerance="10"
     guidetolerance="10"
     inkscape:pageopacity="0"
     inkscape:pageshadow="2"
     inkscape:window-width="1920"
     inkscape:window-height="1017"
     id="namedview594"
     showgrid="false"
     inkscape:zoom="0.25173333"
     inkscape:cx="468.75"
     inkscape:cy="468.75"
     inkscape:window-x="1272"
     inkscape:window-y="287"
     inkscape:window-maximized="1"
     inkscape:current-layer="svg2" />
  <desc
     id="desc4">Matlab Figure Converted by PLOT2SVG written by Juerg Schwizer</desc>
  <rect
     style="fill:#ffffff;stroke:none"
     id="rect7"
     height="937.5"
     width="937.5"
     y="0"
     x="0" />
  <polygon
     points="-46.875,-46.875 984.375,-46.875 984.375,-46.875 -46.875,-46.875 "
     id="polygon15"
     style="fill:#ffffff;fill-opacity:1;stroke:none;stroke-width:0.5pt;stroke-dasharray:none;stroke-opacity:1" />
  <polyline
     points="898.438,468.750 897.849,446.262 896.084,423.835 893.147,401.532 889.048,379.413 883.796,357.539 877.407,335.969 869.898,314.764 861.289,293.980 851.604,273.676 840.870,253.906 829.116,234.725 816.374,216.186 802.680,198.339 788.070,181.233 772.585,164.915 756.267,149.430 739.161,134.820 721.314,121.126 702.775,108.384 683.594,96.630 663.824,85.896 643.520,76.211 622.736,67.602 601.531,60.093 579.961,53.704 558.087,48.452 535.968,44.353 513.665,41.416 491.238,39.651 468.750,39.062 446.262,39.651 423.835,41.416 401.532,44.353 379.413,48.452 357.539,53.704 335.969,60.093 314.764,67.602 293.980,76.211 273.676,85.896 253.906,96.630 234.725,108.384 216.186,121.126 198.339,134.820 181.233,149.430 164.915,164.915 149.430,181.233 134.820,198.339 121.126,216.186 108.384,234.725 96.630,253.906 85.896,273.676 76.211,293.980 67.602,314.764 60.093,335.969 53.704,357.539 48.452,379.413 44.353,401.532 41.416,423.835 39.651,446.262 39.062,468.750 39.651,491.238 41.416,513.665 44.353,535.968 48.452,558.087 53.704,579.961 60.093,601.531 67.602,622.736 76.211,643.520 85.896,663.824 96.630,683.594 108.384,702.775 121.126,721.314 134.820,739.161 149.430,756.267 164.915,772.585 181.233,788.070 198.339,802.680 216.186,816.374 234.725,829.116 253.906,840.870 273.676,851.604 293.980,861.289 314.764,869.898 335.969,877.407 357.539,883.796 379.413,889.048 401.532,893.147 423.835,896.084 446.262,897.849 468.750,898.438 491.238,897.849 513.665,896.084 535.968,893.147 558.087,889.048 579.961,883.796 601.531,877.407 622.736,869.898 643.520,861.289 663.824,851.604 683.594,840.870 702.775,829.116 721.314,816.374 739.161,802.680 756.267,788.070 772.585,772.585 788.070,756.267 802.680,739.161 816.374,721.314 829.116,702.775 840.870,683.594 851.604,663.824 861.289,643.520 869.898,622.736 877.407,601.531 883.796,579.961 889.048,558.087 893.147,535.968 896.084,513.665 897.849,491.238 898.437,468.320 "
     id="polyline22"
     style="fill:none;stroke:#000000;stroke-width:10pt;stroke-dasharray:none" />
  <polyline
     points="509.173,84.150 511.419,62.783 "
     id="polyline27"
     style="fill:none;stroke:#000000;stroke-width:8pt;stroke-dasharray:none" />
  <polyline
     points="549.153,90.482 553.620,69.467 "
     id="polyline32"
     style="fill:none;stroke:#000000;stroke-width:8pt;stroke-dasharray:none" />
  <polyline
     points="588.253,100.959 594.892,80.526 "
     id="polyline37"
     style="fill:none;stroke:#000000;stroke-width:8pt;stroke-dasharray:none" />
  <polyline
     points="626.043,115.465 634.781,95.838 "
     id="polyline42"
     style="fill:none;stroke:#000000;stroke-width:8pt;stroke-dasharray:none" />
  <polyline
     points="662.109,133.842 672.852,115.236 "
     id="polyline47"
     style="fill:none;stroke:#000000;stroke-width:8pt;stroke-dasharray:none" />
  <polyline
     points="696.058,155.888 708.686,138.507 "
     id="polyline52"
     style="fill:none;stroke:#000000;stroke-width:8pt;stroke-dasharray:none" />
  <polyline
     points="727.515,181.362 741.891,165.396 "
     id="polyline57"
     style="fill:none;stroke:#000000;stroke-width:8pt;stroke-dasharray:none" />
  <polyline
     points="756.138,209.985 772.104,195.609 "
     id="polyline62"
     style="fill:none;stroke:#000000;stroke-width:8pt;stroke-dasharray:none" />
  <polyline
     points="781.612,241.442 798.993,228.814 "
     id="polyline67"
     style="fill:none;stroke:#000000;stroke-width:8pt;stroke-dasharray:none" />
  <polyline
     points="803.658,275.391 822.264,264.648 "
     id="polyline72"
     style="fill:none;stroke:#000000;stroke-width:8pt;stroke-dasharray:none" />
  <polyline
     points="822.035,311.457 841.662,302.719 "
     id="polyline77"
     style="fill:none;stroke:#000000;stroke-width:8pt;stroke-dasharray:none" />
  <polyline
     points="836.541,349.247 856.974,342.608 "
     id="polyline82"
     style="fill:none;stroke:#000000;stroke-width:8pt;stroke-dasharray:none" />
  <polyline
     points="847.018,388.347 868.033,383.880 "
     id="polyline87"
     style="fill:none;stroke:#000000;stroke-width:8pt;stroke-dasharray:none" />
  <polyline
     points="853.350,428.327 874.717,426.081 "
     id="polyline92"
     style="fill:none;stroke:#000000;stroke-width:8pt;stroke-dasharray:none" />
  <polyline
     points="855.469,468.750 876.953,468.750 "
     id="polyline97"
     style="fill:none;stroke:#000000;stroke-width:8pt;stroke-dasharray:none" />
  <polyline
     points="853.350,509.173 874.717,511.419 "
     id="polyline102"
     style="fill:none;stroke:#000000;stroke-width:8pt;stroke-dasharray:none" />
  <polyline
     points="847.018,549.153 868.033,553.620 "
     id="polyline107"
     style="fill:none;stroke:#000000;stroke-width:8pt;stroke-dasharray:none" />
  <polyline
     points="836.541,588.253 856.974,594.892 "
     id="polyline112"
     style="fill:none;stroke:#000000;stroke-width:8pt;stroke-dasharray:none" />
  <polyline
     points="822.035,626.043 841.662,634.781 "
     id="polyline117"
     style="fill:none;stroke:#000000;stroke-width:8pt;stroke-dasharray:none" />
  <polyline
     points="803.658,662.109 822.264,672.852 "
     id="polyline122"
     style="fill:none;stroke:#000000;stroke-width:8pt;stroke-dasharray:none" />
  <polyline
     points="781.612,696.058 798.993,708.686 "
     id="polyline127"
     style="fill:none;stroke:#000000;stroke-width:8pt;stroke-dasharray:none" />
  <polyline
     points="756.138,727.515 772.104,741.891 "
     id="polyline132"
     style="fill:none;stroke:#000000;stroke-width:8pt;stroke-dasharray:none" />
  <polyline
     points="727.515,756.138 741.891,772.104 "
     id="polyline137"
     style="fill:none;stroke:#000000;stroke-width:8pt;stroke-dasharray:none" />
  <polyline
     points="696.058,781.612 708.686,798.993 "
     id="polyline142"
     style="fill:none;stroke:#000000;stroke-width:8pt;stroke-dasharray:none" />
  <polyline
     points="662.109,803.658 672.852,822.264 "
     id="polyline147"
     style="fill:none;stroke:#000000;stroke-width:8pt;stroke-dasharray:none" />
  <polyline
     points="626.043,822.035 634.781,841.662 "
     id="polyline152"
     style="fill:none;stroke:#000000;stroke-width:8pt;stroke-dasharray:none" />
  <polyline
     points="588.253,836.541 594.892,856.974 "
     id="polyline157"
     style="fill:none;stroke:#000000;stroke-width:8pt;stroke-dasharray:none" />
  <polyline
     points="549.153,847.018 553.620,868.033 "
     id="polyline162"
     style="fill:none;stroke:#000000;stroke-width:8pt;stroke-dasharray:none" />
  <polyline
     points="509.173,853.350 511.419,874.717 "
     id="polyline167"
     style="fill:none;stroke:#000000;stroke-width:8pt;stroke-dasharray:none" />
  <polyline
     points="468.750,855.469 468.750,876.953 "
     id="polyline172"
     style="fill:none;stroke:#000000;stroke-width:8pt;stroke-dasharray:none" />
  <polyline
     points="428.327,853.350 426.081,874.717 "
     id="polyline177"
     style="fill:none;stroke:#000000;stroke-width:8pt;stroke-dasharray:none" />
  <polyline
     points="388.347,847.018 383.880,868.033 "
     id="polyline182"
     style="fill:none;stroke:#000000;stroke-width:8pt;stroke-dasharray:none" />
  <polyline
     points="349.247,836.541 342.608,856.974 "
     id="polyline187"
     style="fill:none;stroke:#000000;stroke-width:8pt;stroke-dasharray:none" />
  <polyline
     points="311.457,822.035 302.719,841.662 "
     id="polyline192"
     style="fill:none;stroke:#000000;stroke-width:8pt;stroke-dasharray:none" />
  <polyline
     points="275.391,803.658 264.648,822.264 "
     id="polyline197"
     style="fill:none;stroke:#000000;stroke-width:8pt;stroke-dasharray:none" />
  <polyline
     points="241.442,781.612 228.814,798.993 "
     id="polyline202"
     style="fill:none;stroke:#000000;stroke-width:8pt;stroke-dasharray:none" />
  <polyline
     points="209.985,756.138 195.609,772.104 "
     id="polyline207"
     style="fill:none;stroke:#000000;stroke-width:8pt;stroke-dasharray:none" />
  <polyline
     points="181.362,727.515 165.396,741.891 "
     id="polyline212"
     style="fill:none;stroke:#000000;stroke-width:8pt;stroke-dasharray:none" />
  <polyline
     points="155.888,696.058 138.507,708.686 "
     id="polyline217"
     style="fill:none;stroke:#000000;stroke-width:8pt;stroke-dasharray:none" />
  <polyline
     points="133.842,662.109 115.236,672.852 "
     id="polyline222"
     style="fill:none;stroke:#000000;stroke-width:8pt;stroke-dasharray:none" />
  <polyline
     points="115.465,626.043 95.838,634.781 "
     id="polyline227"
     style="fill:none;stroke:#000000;stroke-width:8pt;stroke-dasharray:none" />
  <polyline
     points="100.959,588.253 80.526,594.892 "
     id="polyline232"
     style="fill:none;stroke:#000000;stroke-width:8pt;stroke-dasharray:none" />
  <polyline
     points="90.482,549.153 69.467,553.620 "
     id="polyline237"
     style="fill:none;stroke:#000000;stroke-width:8pt;stroke-dasharray:none" />
  <polyline
     points="84.150,509.173 62.783,511.419 "
     id="polyline242"
     style="fill:none;stroke:#000000;stroke-width:8pt;stroke-dasharray:none" />
  <polyline
     points="82.031,468.750 60.547,468.750 "
     id="polyline247"
     style="fill:none;stroke:#000000;stroke-width:8pt;stroke-dasharray:none" />
  <polyline
     points="84.150,428.327 62.783,426.081 "
     id="polyline252"
     style="fill:none;stroke:#000000;stroke-width:8pt;stroke-dasharray:none" />
  <polyline
     points="90.482,388.347 69.467,383.880 "
     id="polyline257"
     style="fill:none;stroke:#000000;stroke-width:8pt;stroke-dasharray:none" />
  <polyline
     points="100.959,349.247 80.526,342.608 "
     id="polyline262"
     style="fill:none;stroke:#000000;stroke-width:8pt;stroke-dasharray:none" />
  <polyline
     points="115.465,311.457 95.838,302.719 "
     id="polyline267"
     style="fill:none;stroke:#000000;stroke-width:8pt;stroke-dasharray:none" />
  <polyline
     points="133.842,275.391 115.236,264.648 "
     id="polyline272"
     style="fill:none;stroke:#000000;stroke-width:8pt;stroke-dasharray:none" />
  <polyline
     points="155.888,241.442 138.507,228.814 "
     id="polyline277"
     style="fill:none;stroke:#000000;stroke-width:8pt;stroke-dasharray:none" />
  <polyline
     points="181.362,209.985 165.396,195.609 "
     id="polyline282"
     style="fill:none;stroke:#000000;stroke-width:8pt;stroke-dasharray:none" />
  <polyline
     points="209.985,181.362 195.609,165.396 "
     id="polyline287"
     style="fill:none;stroke:#000000;stroke-width:8pt;stroke-dasharray:none" />
  <polyline
     points="241.442,155.888 228.814,138.507 "
     id="polyline292"
     style="fill:none;stroke:#000000;stroke-width:8pt;stroke-dasharray:none" />
  <polyline
     points="275.391,133.842 264.648,115.236 "
     id="polyline297"
     style="fill:none;stroke:#000000;stroke-width:8pt;stroke-dasharray:none" />
  <polyline
     points="311.457,115.465 302.719,95.838 "
     id="polyline302"
     style="fill:none;stroke:#000000;stroke-width:8pt;stroke-dasharray:none" />
  <polyline
     points="349.247,100.959 342.608,80.526 "
     id="polyline307"
     style="fill:none;stroke:#000000;stroke-width:8pt;stroke-dasharray:none" />
  <polyline
     points="388.347,90.482 383.880,69.467 "
     id="polyline312"
     style="fill:none;stroke:#000000;stroke-width:8pt;stroke-dasharray:none" />
  <polyline
     points="428.327,84.150 426.081,62.783 "
     id="polyline317"
     style="fill:none;stroke:#000000;stroke-width:8pt;stroke-dasharray:none" />
  <polyline
     points="468.750,82.031 468.750,60.547 "
     id="polyline322"
     style="fill:none;stroke:#000000;stroke-width:8pt;stroke-dasharray:none" />
  <polyline
     points="629.883,189.660 672.852,115.236 "
     id="polyline327"
     style="fill:none;stroke:#000000;stroke-width:12pt;stroke-dasharray:none" />
  <polyline
     points="747.840,307.617 822.264,264.648 "
     id="polyline332"
     style="fill:none;stroke:#000000;stroke-width:12pt;stroke-dasharray:none" />
  <polyline
     points="791.016,468.750 876.953,468.750 "
     id="polyline337"
     style="fill:none;stroke:#000000;stroke-width:12pt;stroke-dasharray:none" />
  <polyline
     points="747.840,629.883 822.264,672.852 "
     id="polyline342"
     style="fill:none;stroke:#000000;stroke-width:12pt;stroke-dasharray:none" />
  <polyline
     points="629.883,747.840 672.852,822.264 "
     id="polyline347"
     style="fill:none;stroke:#000000;stroke-width:12pt;stroke-dasharray:none" />
  <polyline
     points="468.750,791.016 468.750,876.953 "
     id="polyline352"
     style="fill:none;stroke:#000000;stroke-width:12pt;stroke-dasharray:none" />
  <polyline
     points="307.617,747.840 264.648,822.264 "
     id="polyline357"
     style="fill:none;stroke:#000000;stroke-width:12pt;stroke-dasharray:none" />
  <polyline
     points="189.660,629.883 115.236,672.852 "
     id="polyline362"
     style="fill:none;stroke:#000000;stroke-width:12pt;stroke-dasharray:none" />
  <polyline
     points="146.484,468.750 60.547,468.750 "
     id="polyline367"
     style="fill:none;stroke:#000000;stroke-width:12pt;stroke-dasharray:none" />
  <polyline
     points="189.660,307.617 115.236,264.648 "
     id="polyline372"
     style="fill:none;stroke:#000000;stroke-width:12pt;stroke-dasharray:none" />
  <polyline
     points="307.617,189.660 264.648,115.236 "
     id="polyline377"
     style="fill:none;stroke:#000000;stroke-width:12pt;stroke-dasharray:none" />
  <polyline
     points="468.750,146.484 468.750,60.547 "
     id="polyline382"
     style="fill:none;stroke:#000000;stroke-width:12pt;stroke-dasharray:none" />
  <polyline
     points="458.646,510.514 529.373,218.166 "
     id="polyline387"
     style="fill:none;stroke:#000000;stroke-width:20pt;stroke-dasharray:none" />
  <polyline
     points="442.194,387.019 593.564,852.888 "
     id="polyline392"
     style="fill:none;stroke:#000000;stroke-width:12pt;stroke-dasharray:none" />
  <polyline
     points="387.019,495.306 852.888,343.936 "
     id="polyline397"
     style="fill:none;stroke:#000000;stroke-width:8pt;stroke-dasharray:none" />
</svg>
